<mxfile host="app.diagrams.net" agent="Mozilla/5.0 (Windows NT 10.0; Win64; x64; rv:138.0) Gecko/20100101 Firefox/138.0" version="27.0.5">
  <diagram name="Page-1" id="g2eCq3s7YnF-HcVKCv6a">
    <mxGraphModel dx="658" dy="361" grid="1" gridSize="10" guides="1" tooltips="1" connect="1" arrows="1" fold="1" page="1" pageScale="1" pageWidth="827" pageHeight="1169" math="0" shadow="0">
      <root>
        <mxCell id="0" />
        <mxCell id="1" parent="0" />
        <mxCell id="cbppNZxpWm2GkPlsupn6-1" value="&lt;div align=&quot;center&quot;&gt;OpenStack&lt;/div&gt;" style="swimlane;whiteSpace=wrap;html=1;align=center;fillColor=#fff2cc;strokeColor=#d6b656;" vertex="1" parent="1">
          <mxGeometry x="80" y="80" width="520" height="640" as="geometry" />
        </mxCell>
        <mxCell id="cbppNZxpWm2GkPlsupn6-3" value="MISP Server" style="swimlane;whiteSpace=wrap;html=1;fillColor=#d5e8d4;strokeColor=#82b366;" vertex="1" parent="cbppNZxpWm2GkPlsupn6-1">
          <mxGeometry x="40" y="50" width="440" height="560" as="geometry" />
        </mxCell>
        <mxCell id="cbppNZxpWm2GkPlsupn6-11" value="" style="rounded=0;whiteSpace=wrap;html=1;fillColor=#d5e8d4;strokeColor=#82b366;" vertex="1" parent="cbppNZxpWm2GkPlsupn6-3">
          <mxGeometry x="20" y="40" width="400" height="490" as="geometry" />
        </mxCell>
        <mxCell id="cbppNZxpWm2GkPlsupn6-12" value="Instance Name: ${var.kubernetes_cluster_ name}-misp" style="text;html=1;align=left;verticalAlign=middle;whiteSpace=wrap;rounded=0;" vertex="1" parent="cbppNZxpWm2GkPlsupn6-3">
          <mxGeometry x="40" y="60" width="310" height="30" as="geometry" />
        </mxCell>
        <mxCell id="cbppNZxpWm2GkPlsupn6-15" value="Availability Zone: ${var.availability_zone}" style="text;html=1;align=left;verticalAlign=middle;whiteSpace=wrap;rounded=0;" vertex="1" parent="cbppNZxpWm2GkPlsupn6-3">
          <mxGeometry x="40" y="150" width="340" height="30" as="geometry" />
        </mxCell>
        <mxCell id="cbppNZxpWm2GkPlsupn6-14" value="Image: ${var.misp_image_name}" style="text;html=1;align=left;verticalAlign=middle;whiteSpace=wrap;rounded=0;" vertex="1" parent="cbppNZxpWm2GkPlsupn6-3">
          <mxGeometry x="40" y="120" width="330" height="30" as="geometry" />
        </mxCell>
        <mxCell id="cbppNZxpWm2GkPlsupn6-13" value="Flavor: ${var.misp_flavor_name}" style="text;html=1;align=left;verticalAlign=middle;whiteSpace=wrap;rounded=0;" vertex="1" parent="cbppNZxpWm2GkPlsupn6-3">
          <mxGeometry x="40" y="90" width="290" height="30" as="geometry" />
        </mxCell>
        <mxCell id="cbppNZxpWm2GkPlsupn6-17" value="Floating Ip" style="rounded=0;whiteSpace=wrap;html=1;fillColor=#fff2cc;strokeColor=#d6b656;" vertex="1" parent="cbppNZxpWm2GkPlsupn6-3">
          <mxGeometry x="40" y="190" width="110" height="30" as="geometry" />
        </mxCell>
        <mxCell id="cbppNZxpWm2GkPlsupn6-18" value="Public Access on NTNU network" style="text;html=1;align=center;verticalAlign=middle;whiteSpace=wrap;rounded=0;" vertex="1" parent="cbppNZxpWm2GkPlsupn6-3">
          <mxGeometry x="234" y="190" width="116" height="30" as="geometry" />
        </mxCell>
        <mxCell id="cbppNZxpWm2GkPlsupn6-19" value="" style="endArrow=classic;html=1;rounded=0;exitX=0;exitY=0.5;exitDx=0;exitDy=0;entryX=1;entryY=0.5;entryDx=0;entryDy=0;" edge="1" parent="cbppNZxpWm2GkPlsupn6-3" source="cbppNZxpWm2GkPlsupn6-18" target="cbppNZxpWm2GkPlsupn6-17">
          <mxGeometry width="50" height="50" relative="1" as="geometry">
            <mxPoint x="130" y="170" as="sourcePoint" />
            <mxPoint x="180" y="120" as="targetPoint" />
          </mxGeometry>
        </mxCell>
        <mxCell id="cbppNZxpWm2GkPlsupn6-20" value="MISP Platform" style="swimlane;whiteSpace=wrap;html=1;fillColor=#ffe6cc;strokeColor=#d79b00;" vertex="1" parent="cbppNZxpWm2GkPlsupn6-3">
          <mxGeometry x="40" y="270" width="360" height="200" as="geometry" />
        </mxCell>
        <mxCell id="cbppNZxpWm2GkPlsupn6-30" value="&lt;div&gt;Apache&lt;/div&gt;&lt;div&gt;Web Server&lt;/div&gt;" style="rounded=0;whiteSpace=wrap;html=1;fillColor=#ffe6cc;strokeColor=#d79b00;" vertex="1" parent="cbppNZxpWm2GkPlsupn6-20">
          <mxGeometry x="80" y="115" width="90" height="60" as="geometry" />
        </mxCell>
        <mxCell id="cbppNZxpWm2GkPlsupn6-29" value="&lt;div&gt;PHP-FPM&lt;/div&gt;&lt;div&gt;Processing&lt;/div&gt;" style="rounded=0;whiteSpace=wrap;html=1;fillColor=#ffe6cc;strokeColor=#d79b00;" vertex="1" parent="cbppNZxpWm2GkPlsupn6-20">
          <mxGeometry x="200" y="115" width="90" height="60" as="geometry" />
        </mxCell>
        <mxCell id="cbppNZxpWm2GkPlsupn6-22" value="&lt;div&gt;MISP web &lt;br&gt;&lt;/div&gt;&lt;div&gt;interface&lt;/div&gt;" style="rounded=0;whiteSpace=wrap;html=1;fillColor=#ffe6cc;strokeColor=#d79b00;" vertex="1" parent="cbppNZxpWm2GkPlsupn6-3">
          <mxGeometry x="50" y="310" width="90" height="60" as="geometry" />
        </mxCell>
        <mxCell id="cbppNZxpWm2GkPlsupn6-28" value="&lt;div&gt;Redis&lt;/div&gt;&lt;div&gt;Cache&lt;/div&gt;" style="rounded=0;whiteSpace=wrap;html=1;fillColor=#ffe6cc;strokeColor=#d79b00;" vertex="1" parent="cbppNZxpWm2GkPlsupn6-3">
          <mxGeometry x="290" y="310" width="90" height="60" as="geometry" />
        </mxCell>
        <mxCell id="cbppNZxpWm2GkPlsupn6-27" value="&lt;div&gt;MariaDB&lt;/div&gt;&lt;div&gt;Database&lt;/div&gt;" style="rounded=0;whiteSpace=wrap;html=1;fillColor=#ffe6cc;strokeColor=#d79b00;" vertex="1" parent="cbppNZxpWm2GkPlsupn6-3">
          <mxGeometry x="175" y="310" width="90" height="60" as="geometry" />
        </mxCell>
        <mxCell id="cbppNZxpWm2GkPlsupn6-10" value="Vertical Container" style="swimlane;whiteSpace=wrap;html=1;" vertex="1" parent="1">
          <mxGeometry x="850" y="450" width="326" height="290" as="geometry" />
        </mxCell>
        <mxCell id="cbppNZxpWm2GkPlsupn6-33" value="Deployment Workflow" style="swimlane;whiteSpace=wrap;html=1;fillColor=#f8cecc;strokeColor=#b85450;" vertex="1" parent="1">
          <mxGeometry x="80" y="750" width="520" height="200" as="geometry" />
        </mxCell>
        <mxCell id="cbppNZxpWm2GkPlsupn6-37" style="edgeStyle=orthogonalEdgeStyle;rounded=0;orthogonalLoop=1;jettySize=auto;html=1;exitX=1;exitY=0.5;exitDx=0;exitDy=0;entryX=0;entryY=0.5;entryDx=0;entryDy=0;" edge="1" parent="cbppNZxpWm2GkPlsupn6-33" source="cbppNZxpWm2GkPlsupn6-34" target="cbppNZxpWm2GkPlsupn6-35">
          <mxGeometry relative="1" as="geometry" />
        </mxCell>
        <mxCell id="cbppNZxpWm2GkPlsupn6-34" value="&lt;div&gt;Terraform&lt;/div&gt;&lt;div&gt;Apply phase&lt;/div&gt;" style="rounded=0;whiteSpace=wrap;html=1;fillColor=#ffe6cc;strokeColor=#d79b00;" vertex="1" parent="cbppNZxpWm2GkPlsupn6-33">
          <mxGeometry x="30" y="70" width="120" height="60" as="geometry" />
        </mxCell>
        <mxCell id="cbppNZxpWm2GkPlsupn6-38" style="edgeStyle=orthogonalEdgeStyle;rounded=0;orthogonalLoop=1;jettySize=auto;html=1;exitX=1;exitY=0.5;exitDx=0;exitDy=0;entryX=0;entryY=0.5;entryDx=0;entryDy=0;" edge="1" parent="cbppNZxpWm2GkPlsupn6-33" source="cbppNZxpWm2GkPlsupn6-35" target="cbppNZxpWm2GkPlsupn6-36">
          <mxGeometry relative="1" as="geometry" />
        </mxCell>
        <mxCell id="cbppNZxpWm2GkPlsupn6-35" value="SSH Key&lt;br&gt;Generation" style="rounded=0;whiteSpace=wrap;html=1;fillColor=#ffe6cc;strokeColor=#d79b00;" vertex="1" parent="cbppNZxpWm2GkPlsupn6-33">
          <mxGeometry x="200" y="70" width="120" height="60" as="geometry" />
        </mxCell>
        <mxCell id="cbppNZxpWm2GkPlsupn6-36" value="&lt;div align=&quot;left&quot;&gt;&amp;nbsp; Ansible Provisioning:&lt;/div&gt;&lt;div align=&quot;left&quot;&gt;&lt;ol&gt;&lt;li&gt;Wait for SSH key&lt;/li&gt;&lt;li&gt;Create inventory.ini&lt;/li&gt;&lt;li&gt;Run misp_deploy.yaml&lt;/li&gt;&lt;/ol&gt;&lt;/div&gt;" style="rounded=0;whiteSpace=wrap;html=1;align=left;fillColor=#ffe6cc;strokeColor=#d79b00;" vertex="1" parent="cbppNZxpWm2GkPlsupn6-33">
          <mxGeometry x="360" y="40" width="150" height="140" as="geometry" />
        </mxCell>
      </root>
    </mxGraphModel>
  </diagram>
</mxfile>
